# xmcd
#
# Track frame offsets: 
#        150
#        24152
#        41402
#        60161
#        73151
#
# Disc length: 1171 seconds
#
# Revision: 0
# Processed by: cddbd v1.5.2PL0 Copyright (c) Steve Scherf et al.
# Submitted via: ExactAudioCopy v0.99pb5
#
DISCID=34049105
DTITLE=Campbell The Band - Campbell The Band
DYEAR=2011
DGENRE=Christian Indie
TTITLE0=Crying For you
TTITLE1=Hope Is
TTITLE2=The Background
TTITLE3=Show Us Your Teeth
TTITLE4=Come Home
EXTD=
EXTT0=
EXTT1=
EXTT2=
EXTT3=
EXTT4=
PLAYORDER=
